<mxfile host="app.diagrams.net" modified="2024-06-20T06:10:43.800Z" agent="Mozilla/5.0 (Windows NT 10.0; Win64; x64) AppleWebKit/537.36 (KHTML, like Gecko) Chrome/125.0.0.0 Safari/537.36" etag="TEnhGOjBM8AU-550YiNA" version="24.5.5" type="github">
  <diagram id="C5RBs43oDa-KdzZeNtuy" name="Page-1">
    <mxGraphModel dx="2327" dy="883" grid="1" gridSize="10" guides="1" tooltips="1" connect="1" arrows="1" fold="1" page="1" pageScale="1" pageWidth="827" pageHeight="1169" math="0" shadow="0">
      <root>
        <mxCell id="WIyWlLk6GJQsqaUBKTNV-0" />
        <mxCell id="WIyWlLk6GJQsqaUBKTNV-1" parent="WIyWlLk6GJQsqaUBKTNV-0" />
        <mxCell id="WIyWlLk6GJQsqaUBKTNV-3" value="오토트레이딩스타트&lt;div&gt;&lt;br&gt;&lt;/div&gt;" style="rounded=1;whiteSpace=wrap;html=1;fontSize=12;glass=0;strokeWidth=1;shadow=0;" parent="WIyWlLk6GJQsqaUBKTNV-1" vertex="1">
          <mxGeometry width="160" height="40" as="geometry" />
        </mxCell>
        <mxCell id="B6mIEz9vnwIUtd5c9VGT-0" value="" style="rounded=0;whiteSpace=wrap;html=1;" vertex="1" parent="WIyWlLk6GJQsqaUBKTNV-1">
          <mxGeometry y="80" width="160" height="120" as="geometry" />
        </mxCell>
        <mxCell id="B6mIEz9vnwIUtd5c9VGT-1" value="현재 가용 담보금 가져오기" style="rounded=1;whiteSpace=wrap;html=1;" vertex="1" parent="WIyWlLk6GJQsqaUBKTNV-1">
          <mxGeometry x="200" y="80" width="160" height="40" as="geometry" />
        </mxCell>
        <mxCell id="B6mIEz9vnwIUtd5c9VGT-2" value="종목선택" style="rounded=1;whiteSpace=wrap;html=1;" vertex="1" parent="WIyWlLk6GJQsqaUBKTNV-1">
          <mxGeometry x="-200" y="80" width="160" height="40" as="geometry" />
        </mxCell>
        <mxCell id="B6mIEz9vnwIUtd5c9VGT-3" value="API" style="rounded=0;whiteSpace=wrap;html=1;" vertex="1" parent="WIyWlLk6GJQsqaUBKTNV-1">
          <mxGeometry x="400" y="80" width="160" height="40" as="geometry" />
        </mxCell>
        <mxCell id="B6mIEz9vnwIUtd5c9VGT-4" value="availableBalance" style="shape=document;whiteSpace=wrap;html=1;boundedLbl=1;" vertex="1" parent="WIyWlLk6GJQsqaUBKTNV-1">
          <mxGeometry x="400" y="160" width="160" height="40" as="geometry" />
        </mxCell>
        <mxCell id="B6mIEz9vnwIUtd5c9VGT-5" value="" style="endArrow=classic;html=1;rounded=0;entryX=1.042;entryY=0.837;entryDx=0;entryDy=0;entryPerimeter=0;exitX=0;exitY=0.5;exitDx=0;exitDy=0;" edge="1" parent="WIyWlLk6GJQsqaUBKTNV-1" source="B6mIEz9vnwIUtd5c9VGT-4" target="B6mIEz9vnwIUtd5c9VGT-0">
          <mxGeometry width="50" height="50" relative="1" as="geometry">
            <mxPoint x="390" y="250" as="sourcePoint" />
            <mxPoint x="440" y="200" as="targetPoint" />
          </mxGeometry>
        </mxCell>
        <mxCell id="B6mIEz9vnwIUtd5c9VGT-6" value="" style="endArrow=classic;html=1;rounded=0;entryX=0;entryY=0.5;entryDx=0;entryDy=0;exitX=1.007;exitY=0.17;exitDx=0;exitDy=0;exitPerimeter=0;" edge="1" parent="WIyWlLk6GJQsqaUBKTNV-1" source="B6mIEz9vnwIUtd5c9VGT-0" target="B6mIEz9vnwIUtd5c9VGT-1">
          <mxGeometry width="50" height="50" relative="1" as="geometry">
            <mxPoint x="410" y="190" as="sourcePoint" />
            <mxPoint x="177" y="190" as="targetPoint" />
          </mxGeometry>
        </mxCell>
        <mxCell id="B6mIEz9vnwIUtd5c9VGT-8" value="" style="endArrow=classic;html=1;rounded=0;exitX=1;exitY=0.5;exitDx=0;exitDy=0;entryX=0;entryY=0.5;entryDx=0;entryDy=0;" edge="1" parent="WIyWlLk6GJQsqaUBKTNV-1" source="B6mIEz9vnwIUtd5c9VGT-1" target="B6mIEz9vnwIUtd5c9VGT-3">
          <mxGeometry width="50" height="50" relative="1" as="geometry">
            <mxPoint x="390" y="250" as="sourcePoint" />
            <mxPoint x="440" y="200" as="targetPoint" />
          </mxGeometry>
        </mxCell>
        <mxCell id="B6mIEz9vnwIUtd5c9VGT-9" value="" style="endArrow=classic;html=1;rounded=0;exitX=0.5;exitY=1;exitDx=0;exitDy=0;entryX=0.5;entryY=0;entryDx=0;entryDy=0;" edge="1" parent="WIyWlLk6GJQsqaUBKTNV-1" source="B6mIEz9vnwIUtd5c9VGT-3" target="B6mIEz9vnwIUtd5c9VGT-4">
          <mxGeometry width="50" height="50" relative="1" as="geometry">
            <mxPoint x="370" y="110" as="sourcePoint" />
            <mxPoint x="410" y="110" as="targetPoint" />
          </mxGeometry>
        </mxCell>
        <mxCell id="B6mIEz9vnwIUtd5c9VGT-10" value="" style="endArrow=classic;html=1;rounded=0;entryX=0.5;entryY=0;entryDx=0;entryDy=0;exitX=0.5;exitY=1;exitDx=0;exitDy=0;" edge="1" parent="WIyWlLk6GJQsqaUBKTNV-1" source="WIyWlLk6GJQsqaUBKTNV-3" target="B6mIEz9vnwIUtd5c9VGT-0">
          <mxGeometry width="50" height="50" relative="1" as="geometry">
            <mxPoint x="171" y="110" as="sourcePoint" />
            <mxPoint x="210" y="110" as="targetPoint" />
          </mxGeometry>
        </mxCell>
        <mxCell id="B6mIEz9vnwIUtd5c9VGT-11" value="" style="endArrow=classic;html=1;rounded=0;entryX=1;entryY=0.5;entryDx=0;entryDy=0;exitX=0;exitY=0.167;exitDx=0;exitDy=0;exitPerimeter=0;" edge="1" parent="WIyWlLk6GJQsqaUBKTNV-1" source="B6mIEz9vnwIUtd5c9VGT-0" target="B6mIEz9vnwIUtd5c9VGT-2">
          <mxGeometry width="50" height="50" relative="1" as="geometry">
            <mxPoint x="90" y="50" as="sourcePoint" />
            <mxPoint x="90" y="90" as="targetPoint" />
          </mxGeometry>
        </mxCell>
        <mxCell id="B6mIEz9vnwIUtd5c9VGT-12" value="" style="endArrow=classic;html=1;rounded=0;exitX=0;exitY=0.5;exitDx=0;exitDy=0;" edge="1" parent="WIyWlLk6GJQsqaUBKTNV-1" source="B6mIEz9vnwIUtd5c9VGT-2">
          <mxGeometry width="50" height="50" relative="1" as="geometry">
            <mxPoint x="10" y="110" as="sourcePoint" />
            <mxPoint x="-240" y="100" as="targetPoint" />
          </mxGeometry>
        </mxCell>
        <mxCell id="B6mIEz9vnwIUtd5c9VGT-13" value="선택종목있다면" style="rhombus;whiteSpace=wrap;html=1;" vertex="1" parent="WIyWlLk6GJQsqaUBKTNV-1">
          <mxGeometry x="-400" y="80" width="160" height="40" as="geometry" />
        </mxCell>
        <mxCell id="B6mIEz9vnwIUtd5c9VGT-26" value="" style="edgeStyle=orthogonalEdgeStyle;rounded=0;orthogonalLoop=1;jettySize=auto;html=1;" edge="1" parent="WIyWlLk6GJQsqaUBKTNV-1" source="B6mIEz9vnwIUtd5c9VGT-19" target="B6mIEz9vnwIUtd5c9VGT-25">
          <mxGeometry relative="1" as="geometry" />
        </mxCell>
        <mxCell id="B6mIEz9vnwIUtd5c9VGT-19" value="어레이로반환" style="rounded=0;whiteSpace=wrap;html=1;" vertex="1" parent="WIyWlLk6GJQsqaUBKTNV-1">
          <mxGeometry x="-400" y="160" width="160" height="40" as="geometry" />
        </mxCell>
        <mxCell id="B6mIEz9vnwIUtd5c9VGT-23" value="" style="endArrow=classic;html=1;rounded=0;exitX=0.5;exitY=1;exitDx=0;exitDy=0;" edge="1" parent="WIyWlLk6GJQsqaUBKTNV-1" source="B6mIEz9vnwIUtd5c9VGT-13" target="B6mIEz9vnwIUtd5c9VGT-19">
          <mxGeometry relative="1" as="geometry">
            <mxPoint y="220" as="sourcePoint" />
            <mxPoint x="100" y="220" as="targetPoint" />
          </mxGeometry>
        </mxCell>
        <mxCell id="B6mIEz9vnwIUtd5c9VGT-24" value="YES" style="edgeLabel;resizable=0;html=1;;align=center;verticalAlign=middle;" connectable="0" vertex="1" parent="B6mIEz9vnwIUtd5c9VGT-23">
          <mxGeometry relative="1" as="geometry" />
        </mxCell>
        <mxCell id="B6mIEz9vnwIUtd5c9VGT-27" value="" style="edgeStyle=orthogonalEdgeStyle;rounded=0;orthogonalLoop=1;jettySize=auto;html=1;" edge="1" parent="WIyWlLk6GJQsqaUBKTNV-1" source="B6mIEz9vnwIUtd5c9VGT-25" target="B6mIEz9vnwIUtd5c9VGT-0">
          <mxGeometry relative="1" as="geometry" />
        </mxCell>
        <mxCell id="B6mIEz9vnwIUtd5c9VGT-25" value="selectedStockList" style="text;strokeColor=none;fillColor=none;align=left;verticalAlign=middle;spacingLeft=4;spacingRight=4;overflow=hidden;points=[[0,0.5],[1,0.5]];portConstraint=eastwest;rotatable=0;whiteSpace=wrap;html=1;" vertex="1" parent="WIyWlLk6GJQsqaUBKTNV-1">
          <mxGeometry x="-200" y="160" width="160" height="40" as="geometry" />
        </mxCell>
        <mxCell id="B6mIEz9vnwIUtd5c9VGT-34" value="" style="edgeStyle=orthogonalEdgeStyle;rounded=0;orthogonalLoop=1;jettySize=auto;html=1;" edge="1" parent="WIyWlLk6GJQsqaUBKTNV-1" source="B6mIEz9vnwIUtd5c9VGT-29" target="B6mIEz9vnwIUtd5c9VGT-33">
          <mxGeometry relative="1" as="geometry" />
        </mxCell>
        <mxCell id="B6mIEz9vnwIUtd5c9VGT-29" value="종목선정스타트" style="rounded=1;whiteSpace=wrap;html=1;" vertex="1" parent="WIyWlLk6GJQsqaUBKTNV-1">
          <mxGeometry x="-400" width="160" height="40" as="geometry" />
        </mxCell>
        <mxCell id="B6mIEz9vnwIUtd5c9VGT-31" value="" style="endArrow=classic;html=1;rounded=0;exitX=0.5;exitY=0;exitDx=0;exitDy=0;entryX=0.5;entryY=1;entryDx=0;entryDy=0;" edge="1" parent="WIyWlLk6GJQsqaUBKTNV-1" source="B6mIEz9vnwIUtd5c9VGT-13" target="B6mIEz9vnwIUtd5c9VGT-29">
          <mxGeometry relative="1" as="geometry">
            <mxPoint x="-190" y="220" as="sourcePoint" />
            <mxPoint x="-90" y="220" as="targetPoint" />
          </mxGeometry>
        </mxCell>
        <mxCell id="B6mIEz9vnwIUtd5c9VGT-32" value="NO" style="edgeLabel;resizable=0;html=1;;align=center;verticalAlign=middle;" connectable="0" vertex="1" parent="B6mIEz9vnwIUtd5c9VGT-31">
          <mxGeometry relative="1" as="geometry" />
        </mxCell>
        <mxCell id="B6mIEz9vnwIUtd5c9VGT-41" value="" style="edgeStyle=orthogonalEdgeStyle;rounded=0;orthogonalLoop=1;jettySize=auto;html=1;" edge="1" parent="WIyWlLk6GJQsqaUBKTNV-1" source="B6mIEz9vnwIUtd5c9VGT-33" target="B6mIEz9vnwIUtd5c9VGT-37">
          <mxGeometry relative="1" as="geometry">
            <Array as="points">
              <mxPoint x="-520" y="90" />
              <mxPoint x="-420" y="90" />
              <mxPoint x="-420" y="155" />
            </Array>
          </mxGeometry>
        </mxCell>
        <mxCell id="B6mIEz9vnwIUtd5c9VGT-33" value="거래량 기준 N개 종목 캔들 가져오기(API)" style="rounded=0;whiteSpace=wrap;html=1;" vertex="1" parent="WIyWlLk6GJQsqaUBKTNV-1">
          <mxGeometry x="-600" width="160" height="40" as="geometry" />
        </mxCell>
        <mxCell id="B6mIEz9vnwIUtd5c9VGT-40" value="" style="edgeStyle=orthogonalEdgeStyle;rounded=0;orthogonalLoop=1;jettySize=auto;html=1;" edge="1" parent="WIyWlLk6GJQsqaUBKTNV-1" source="B6mIEz9vnwIUtd5c9VGT-35" target="B6mIEz9vnwIUtd5c9VGT-39">
          <mxGeometry relative="1" as="geometry" />
        </mxCell>
        <mxCell id="B6mIEz9vnwIUtd5c9VGT-35" value="sortedByQuoteVolume" style="swimlane;fontStyle=0;childLayout=stackLayout;horizontal=1;startSize=30;horizontalStack=0;resizeParent=1;resizeParentMax=0;resizeLast=0;collapsible=1;marginBottom=0;whiteSpace=wrap;html=1;" vertex="1" parent="WIyWlLk6GJQsqaUBKTNV-1">
          <mxGeometry x="-600" y="80" width="160" height="120" as="geometry">
            <mxRectangle x="-600" y="80" width="60" height="30" as="alternateBounds" />
          </mxGeometry>
        </mxCell>
        <mxCell id="B6mIEz9vnwIUtd5c9VGT-36" value="Map&amp;lt;String,Object&amp;gt;" style="text;strokeColor=none;fillColor=none;align=left;verticalAlign=middle;spacingLeft=4;spacingRight=4;overflow=hidden;points=[[0,0.5],[1,0.5]];portConstraint=eastwest;rotatable=0;whiteSpace=wrap;html=1;" vertex="1" parent="B6mIEz9vnwIUtd5c9VGT-35">
          <mxGeometry y="30" width="160" height="30" as="geometry" />
        </mxCell>
        <mxCell id="B6mIEz9vnwIUtd5c9VGT-37" value="Map&amp;lt;String,Object&amp;gt;" style="text;strokeColor=none;fillColor=none;align=left;verticalAlign=middle;spacingLeft=4;spacingRight=4;overflow=hidden;points=[[0,0.5],[1,0.5]];portConstraint=eastwest;rotatable=0;whiteSpace=wrap;html=1;" vertex="1" parent="B6mIEz9vnwIUtd5c9VGT-35">
          <mxGeometry y="60" width="160" height="30" as="geometry" />
        </mxCell>
        <mxCell id="B6mIEz9vnwIUtd5c9VGT-38" value="Map&amp;lt;String,Object&amp;gt;" style="text;strokeColor=none;fillColor=none;align=left;verticalAlign=middle;spacingLeft=4;spacingRight=4;overflow=hidden;points=[[0,0.5],[1,0.5]];portConstraint=eastwest;rotatable=0;whiteSpace=wrap;html=1;" vertex="1" parent="B6mIEz9vnwIUtd5c9VGT-35">
          <mxGeometry y="90" width="160" height="30" as="geometry" />
        </mxCell>
        <mxCell id="B6mIEz9vnwIUtd5c9VGT-44" value="" style="edgeStyle=orthogonalEdgeStyle;rounded=0;orthogonalLoop=1;jettySize=auto;html=1;" edge="1" parent="WIyWlLk6GJQsqaUBKTNV-1" source="B6mIEz9vnwIUtd5c9VGT-39" target="B6mIEz9vnwIUtd5c9VGT-43">
          <mxGeometry relative="1" as="geometry" />
        </mxCell>
        <mxCell id="B6mIEz9vnwIUtd5c9VGT-39" value="캔들분석스타트" style="rounded=1;whiteSpace=wrap;html=1;" vertex="1" parent="WIyWlLk6GJQsqaUBKTNV-1">
          <mxGeometry x="-800" y="120" width="160" height="40" as="geometry" />
        </mxCell>
        <mxCell id="B6mIEz9vnwIUtd5c9VGT-53" value="" style="edgeStyle=orthogonalEdgeStyle;rounded=0;orthogonalLoop=1;jettySize=auto;html=1;" edge="1" parent="WIyWlLk6GJQsqaUBKTNV-1" source="B6mIEz9vnwIUtd5c9VGT-42" target="B6mIEz9vnwIUtd5c9VGT-49">
          <mxGeometry relative="1" as="geometry" />
        </mxCell>
        <mxCell id="B6mIEz9vnwIUtd5c9VGT-58" value="" style="edgeStyle=orthogonalEdgeStyle;rounded=0;orthogonalLoop=1;jettySize=auto;html=1;" edge="1" parent="WIyWlLk6GJQsqaUBKTNV-1" source="B6mIEz9vnwIUtd5c9VGT-42" target="B6mIEz9vnwIUtd5c9VGT-57">
          <mxGeometry relative="1" as="geometry" />
        </mxCell>
        <mxCell id="B6mIEz9vnwIUtd5c9VGT-42" value="캔들분석종료" style="rounded=1;whiteSpace=wrap;html=1;" vertex="1" parent="WIyWlLk6GJQsqaUBKTNV-1">
          <mxGeometry x="-800" y="280" width="160" height="40" as="geometry" />
        </mxCell>
        <mxCell id="B6mIEz9vnwIUtd5c9VGT-45" value="" style="edgeStyle=orthogonalEdgeStyle;rounded=0;orthogonalLoop=1;jettySize=auto;html=1;" edge="1" parent="WIyWlLk6GJQsqaUBKTNV-1" source="B6mIEz9vnwIUtd5c9VGT-43" target="B6mIEz9vnwIUtd5c9VGT-42">
          <mxGeometry relative="1" as="geometry" />
        </mxCell>
        <mxCell id="B6mIEz9vnwIUtd5c9VGT-43" value="캔들분석" style="rounded=0;whiteSpace=wrap;html=1;" vertex="1" parent="WIyWlLk6GJQsqaUBKTNV-1">
          <mxGeometry x="-800" y="200" width="160" height="40" as="geometry" />
        </mxCell>
        <mxCell id="B6mIEz9vnwIUtd5c9VGT-46" value="reports" style="swimlane;fontStyle=0;childLayout=stackLayout;horizontal=1;startSize=30;horizontalStack=0;resizeParent=1;resizeParentMax=0;resizeLast=0;collapsible=1;marginBottom=0;whiteSpace=wrap;html=1;" vertex="1" parent="WIyWlLk6GJQsqaUBKTNV-1">
          <mxGeometry x="-600" y="240" width="160" height="120" as="geometry" />
        </mxCell>
        <mxCell id="B6mIEz9vnwIUtd5c9VGT-47" value="TechnicalIndicatorReportEntity" style="text;strokeColor=none;fillColor=none;align=left;verticalAlign=middle;spacingLeft=4;spacingRight=4;overflow=hidden;points=[[0,0.5],[1,0.5]];portConstraint=eastwest;rotatable=0;whiteSpace=wrap;html=1;" vertex="1" parent="B6mIEz9vnwIUtd5c9VGT-46">
          <mxGeometry y="30" width="160" height="30" as="geometry" />
        </mxCell>
        <mxCell id="B6mIEz9vnwIUtd5c9VGT-48" value="TechnicalIndicatorReportEntity" style="text;strokeColor=none;fillColor=none;align=left;verticalAlign=middle;spacingLeft=4;spacingRight=4;overflow=hidden;points=[[0,0.5],[1,0.5]];portConstraint=eastwest;rotatable=0;whiteSpace=wrap;html=1;" vertex="1" parent="B6mIEz9vnwIUtd5c9VGT-46">
          <mxGeometry y="60" width="160" height="30" as="geometry" />
        </mxCell>
        <mxCell id="B6mIEz9vnwIUtd5c9VGT-49" value="TechnicalIndicatorReportEntity" style="text;strokeColor=none;fillColor=none;align=left;verticalAlign=middle;spacingLeft=4;spacingRight=4;overflow=hidden;points=[[0,0.5],[1,0.5]];portConstraint=eastwest;rotatable=0;whiteSpace=wrap;html=1;" vertex="1" parent="B6mIEz9vnwIUtd5c9VGT-46">
          <mxGeometry y="90" width="160" height="30" as="geometry" />
        </mxCell>
        <mxCell id="B6mIEz9vnwIUtd5c9VGT-59" value="" style="edgeStyle=orthogonalEdgeStyle;rounded=0;orthogonalLoop=1;jettySize=auto;html=1;" edge="1" parent="WIyWlLk6GJQsqaUBKTNV-1" source="B6mIEz9vnwIUtd5c9VGT-54" target="B6mIEz9vnwIUtd5c9VGT-19">
          <mxGeometry relative="1" as="geometry" />
        </mxCell>
        <mxCell id="B6mIEz9vnwIUtd5c9VGT-54" value="overlappindData" style="swimlane;fontStyle=0;childLayout=stackLayout;horizontal=1;startSize=30;horizontalStack=0;resizeParent=1;resizeParentMax=0;resizeLast=0;collapsible=1;marginBottom=0;whiteSpace=wrap;html=1;" vertex="1" parent="WIyWlLk6GJQsqaUBKTNV-1">
          <mxGeometry x="-600" y="400" width="160" height="120" as="geometry" />
        </mxCell>
        <mxCell id="B6mIEz9vnwIUtd5c9VGT-55" value="Map&amp;lt;String,Object&amp;gt;" style="text;strokeColor=none;fillColor=none;align=left;verticalAlign=middle;spacingLeft=4;spacingRight=4;overflow=hidden;points=[[0,0.5],[1,0.5]];portConstraint=eastwest;rotatable=0;whiteSpace=wrap;html=1;" vertex="1" parent="B6mIEz9vnwIUtd5c9VGT-54">
          <mxGeometry y="30" width="160" height="30" as="geometry" />
        </mxCell>
        <mxCell id="B6mIEz9vnwIUtd5c9VGT-56" value="Map&amp;lt;String,Object&amp;gt;" style="text;strokeColor=none;fillColor=none;align=left;verticalAlign=middle;spacingLeft=4;spacingRight=4;overflow=hidden;points=[[0,0.5],[1,0.5]];portConstraint=eastwest;rotatable=0;whiteSpace=wrap;html=1;" vertex="1" parent="B6mIEz9vnwIUtd5c9VGT-54">
          <mxGeometry y="60" width="160" height="30" as="geometry" />
        </mxCell>
        <mxCell id="B6mIEz9vnwIUtd5c9VGT-57" value="Map&amp;lt;String,Object&amp;gt;" style="text;strokeColor=none;fillColor=none;align=left;verticalAlign=middle;spacingLeft=4;spacingRight=4;overflow=hidden;points=[[0,0.5],[1,0.5]];portConstraint=eastwest;rotatable=0;whiteSpace=wrap;html=1;" vertex="1" parent="B6mIEz9vnwIUtd5c9VGT-54">
          <mxGeometry y="90" width="160" height="30" as="geometry" />
        </mxCell>
      </root>
    </mxGraphModel>
  </diagram>
</mxfile>
